<?xml version="1.0" encoding="UTF-8" standalone="no"?>
<!-- Created with Inkscape (http://www.inkscape.org/) -->

<svg
   width="582.51233mm"
   height="169.47647mm"
   viewBox="0 0 582.51234 169.47647"
   version="1.1"
   id="svg1"
   xml:space="preserve"
   sodipodi:docname="SOTAtable.svg"
   inkscape:version="1.3.2 (091e20e, 2023-11-25)"
   xmlns:inkscape="http://www.inkscape.org/namespaces/inkscape"
   xmlns:sodipodi="http://sodipodi.sourceforge.net/DTD/sodipodi-0.dtd"
   xmlns="http://www.w3.org/2000/svg"
   xmlns:svg="http://www.w3.org/2000/svg"><sodipodi:namedview
     id="namedview1"
     pagecolor="#ffffff"
     bordercolor="#000000"
     borderopacity="0.25"
     inkscape:showpageshadow="2"
     inkscape:pageopacity="0.0"
     inkscape:pagecheckerboard="0"
     inkscape:deskcolor="#d1d1d1"
     inkscape:document-units="mm"
     inkscape:zoom="0.55376586"
     inkscape:cx="1072.6555"
     inkscape:cy="347.61984"
     inkscape:window-width="2560"
     inkscape:window-height="1440"
     inkscape:window-x="0"
     inkscape:window-y="0"
     inkscape:window-maximized="0"
     inkscape:current-layer="g154" /><defs
     id="defs1"><linearGradient
       id="swatch404"><stop
         style="stop-color:#124e78;stop-opacity:1;"
         offset="0"
         id="stop404" /></linearGradient><linearGradient
       id="swatch115"><stop
         style="stop-color:#020000;stop-opacity:1;"
         offset="0"
         id="stop115" /></linearGradient><linearGradient
       id="swatch105"><stop
         style="stop-color:#020000;stop-opacity:1;"
         offset="0"
         id="stop105" /></linearGradient></defs><g
     inkscape:groupmode="layer"
     id="layer2"
     inkscape:label="Layer 1"><g
       id="g86"
       transform="matrix(3.9944037,0,0,3.9944037,-826.88478,-278.62504)"><g
         id="g154"
         transform="matrix(0.21161316,0,0,0.23183612,207.56192,69.187818)"
         style="display:inline;stroke-width:0.997003;stroke-linejoin:miter;stroke-dasharray:none"><g
           id="g133"><g
             id="g137"
             transform="translate(0,4.4508728)"><rect
               style="display:inline;fill:#0098ff;fill-opacity:0.197701;stroke:none;stroke-width:0.478312;stroke-linejoin:miter;stroke-dasharray:none;stroke-dashoffset:0.226772;stroke-opacity:0.196078"
               id="rect193"
               width="87.801735"
               height="25.751581"
               x="81.099121"
               y="46.757984"
               transform="matrix(1,0,0,0.98811686,5.8974582e-6,-5.6498618)" /><rect
               style="display:inline;opacity:0.859048;fill:#667eff;fill-opacity:0.405797;stroke:#020000;stroke-width:0;stroke-linecap:round;stroke-linejoin:round;stroke-dasharray:none;stroke-opacity:1"
               id="rect189"
               width="79.765953"
               height="25.557035"
               x="-2.6042981"
               y="40.496765" /><text
               x="104.48983"
               y="57.277531"
               fill="#000000"
               font-family="Helvetica"
               font-size="12px"
               id="text25"
               style="font-style:normal;font-variant:normal;font-weight:normal;font-stretch:normal;font-size:10.8462px;font-family:'Fira Math';-inkscape-font-specification:'Fira Math, Normal';font-variant-ligatures:normal;font-variant-caps:normal;font-variant-numeric:normal;font-variant-east-asian:normal;display:inline;fill:#000000;stroke-width:0.997003;stroke-linejoin:miter;stroke-dasharray:none">external</text><text
               xml:space="preserve"
               style="font-style:normal;font-variant:normal;font-weight:normal;font-stretch:normal;font-size:14.4616px;font-family:'Fira Math';-inkscape-font-specification:'Fira Math, Normal';font-variant-ligatures:normal;font-variant-caps:normal;font-variant-numeric:normal;font-variant-east-asian:normal;fill:#000000;fill-opacity:1;stroke:none;stroke-width:0.650771;stroke-linejoin:miter;stroke-dasharray:none;stroke-dashoffset:0.226772;stroke-opacity:1"
               x="16.220257"
               y="62.329472"
               id="text390"
               transform="scale(1.078065,0.92758785)"><tspan
                 id="tspan390"
                 style="font-style:normal;font-variant:normal;font-weight:normal;font-stretch:normal;font-size:14.4616px;font-family:'Fira Math';-inkscape-font-specification:'Fira Math, Normal';font-variant-ligatures:normal;font-variant-caps:normal;font-variant-numeric:normal;font-variant-east-asian:normal;fill:#000000;fill-opacity:1;stroke:none;stroke-width:0.650771"
                 x="16.220257"
                 y="62.329472">Proto</tspan></text><rect
               style="display:inline;opacity:0.859048;fill:#338000;fill-opacity:0.301961;stroke:#020000;stroke-width:0;stroke-linecap:round;stroke-linejoin:round;stroke-dasharray:none;stroke-opacity:1"
               id="rect172"
               width="117.57554"
               height="25.557037"
               x="470.38879"
               y="40.496765" /><path
               d="m 524.472,54.493581 c -0.18271,-0.235799 -0.18271,-0.235799 -0.30451,-0.235799 -0.45675,0 -1.43116,0.523999 -1.43116,0.812198 0,0.0262 0,0.0524 0.15225,0.2882 l 2.46647,3.484594 c 0.0914,0.1572 0.27405,0.419199 0.3045,0.445399 0.0305,0.0524 0.12181,0.0524 0.24361,0.0524 0.39585,0 1.30936,-0.445399 1.40071,-0.785998 0.63945,-2.515196 1.76611,-4.899392 3.53222,-6.969189 0.97441,-1.178998 2.31422,-2.515196 4.23259,-3.746594 0.33495,-0.209599 0.5481,-0.366799 0.5481,-0.497799 0,-0.130999 -0.0913,-0.130999 -0.21315,-0.130999 -0.91351,0 -3.68448,2.253196 -4.78069,3.379794 -1.97926,1.991197 -3.28862,3.903793 -4.32393,6.471389 z m 0,0"
               id="id-b6fed5a9-4d89-46f5-811d-d0472599fc94-75"
               style="display:inline;fill:#338000;stroke-width:1.80228;stroke-linejoin:miter;stroke-dasharray:none" /><rect
               style="display:inline;opacity:0.859048;fill:#338000;fill-opacity:0.301961;stroke:#020000;stroke-width:0;stroke-linecap:round;stroke-linejoin:round;stroke-dasharray:none;stroke-opacity:1"
               id="rect173"
               width="74.448143"
               height="25.557037"
               x="391.68188"
               y="40.496765" /><path
               d="m 424.20141,54.493585 c -0.18271,-0.2358 -0.18271,-0.2358 -0.30451,-0.2358 -0.45675,0 -1.43116,0.524 -1.43116,0.8122 0,0.0262 0,0.0524 0.15225,0.2882 l 2.46647,3.484593 c 0.0914,0.1572 0.27405,0.419203 0.3045,0.445403 0.0305,0.0524 0.12181,0.0524 0.24361,0.0524 0.39585,0 1.30936,-0.445403 1.40071,-0.786003 0.63945,-2.515193 1.76611,-4.899393 3.53222,-6.969196 0.97441,-1.178993 2.31422,-2.515193 4.23259,-3.746596 0.33495,-0.2096 0.5481,-0.3668 0.5481,-0.4978 0,-0.131 -0.0913,-0.131 -0.21315,-0.131 -0.91351,0 -3.68448,2.253203 -4.78069,3.379803 -1.97926,1.991193 -3.28862,3.903796 -4.32393,6.471389 z m 0,0"
               id="path174"
               style="display:inline;fill:#338000;stroke-width:1.80228;stroke-linejoin:miter;stroke-dasharray:none" /><rect
               style="display:inline;opacity:0.859048;fill:#338000;fill-opacity:0.301961;stroke:#020000;stroke-width:0;stroke-linecap:round;stroke-linejoin:round;stroke-dasharray:none;stroke-opacity:1"
               id="rect174"
               width="58.72694"
               height="25.557037"
               x="328.61398"
               y="40.496765" /><path
               d="m 353.27291,54.493585 c -0.18271,-0.2358 -0.18271,-0.2358 -0.30451,-0.2358 -0.45675,0 -1.43116,0.524 -1.43116,0.8122 0,0.0262 0,0.0524 0.15225,0.2882 l 2.46647,3.484593 c 0.0914,0.1572 0.27405,0.419203 0.3045,0.445403 0.0305,0.0524 0.12181,0.0524 0.24361,0.0524 0.39585,0 1.30936,-0.445403 1.40071,-0.786003 0.63945,-2.515193 1.76611,-4.899393 3.53222,-6.969196 0.97441,-1.178993 2.31422,-2.515193 4.23259,-3.746596 0.33495,-0.2096 0.5481,-0.3668 0.5481,-0.4978 0,-0.131 -0.0913,-0.131 -0.21315,-0.131 -0.91351,0 -3.68448,2.253203 -4.78069,3.379803 -1.97926,1.991193 -3.28862,3.903796 -4.32393,6.471389 z m 0,0"
               id="path177"
               style="display:inline;fill:#338000;stroke-width:1.80228;stroke-linejoin:miter;stroke-dasharray:none" /><rect
               style="display:inline;opacity:0.859048;fill:#c83737;fill-opacity:0.3;stroke:#020000;stroke-width:0;stroke-linecap:round;stroke-linejoin:round;stroke-dasharray:none;stroke-opacity:1"
               id="rect177"
               width="65.852135"
               height="25.557037"
               x="258.6001"
               y="40.496765" /><path
               d="m 292.04383,52.541684 2.67961,-3.379803 c 0.4263,-0.524 1.09621,-1.048 2.80141,-1.0742 v -0.524003 c -0.7308,0.0262 -1.6443,0.0524 -2.13151,0.0524 -0.7917,0 -1.73566,0 -2.49691,-0.0524 v 0.524003 c 0.76125,0.0262 1.18756,0.393 1.18756,0.7598 0,0.1834 -0.0305,0.2096 -0.15225,0.393 l -2.22287,2.829603 -2.49691,-3.222603 c -0.0609,-0.0524 -0.15225,-0.1834 -0.15225,-0.262 0,-0.1834 0.4263,-0.4716 1.27891,-0.4978 v -0.524003 c -0.70036,0.0524 -2.10106,0.0524 -2.83187,0.0524 -0.609,0 -1.82701,0 -2.52736,-0.0524 v 0.524003 h 0.3654 c 1.06576,0 1.43116,0.1048 1.79656,0.5764 l 3.56267,4.663603 -3.16682,4.034806 c -0.27405,0.3406 -0.8526,1.1004 -2.83186,1.1004 v 0.524 c 0.70035,-0.0262 1.52251,-0.0524 2.16196,-0.0524 0.7308,0 1.79656,0 2.49691,0.0524 v -0.524 c -0.9135,0 -1.218,-0.4716 -1.218,-0.7598 0,-0.1572 0.0609,-0.2096 0.1827,-0.393 l 2.77096,-3.510803 3.04502,3.982403 c 0.0609,0.0786 0.1218,0.131 0.1218,0.1834 0,0.2096 -0.42631,0.4978 -1.27891,0.4978 v 0.524 c 0.6699,-0.0524 2.10106,-0.0524 2.83187,-0.0524 0.82215,0 1.7052,0.0262 2.52736,0.0524 v -0.524 h -0.3654 c -1.00486,0 -1.43116,-0.0786 -1.82701,-0.6026 z m 0,0"
               id="path178"
               style="display:inline;fill:#c83737;stroke-width:0;stroke-linejoin:miter;stroke-dasharray:none" /><rect
               style="display:inline;opacity:0.859048;fill:#c83737;fill-opacity:0.3;stroke:#020000;stroke-width:0;stroke-linecap:round;stroke-linejoin:round;stroke-dasharray:none;stroke-opacity:1"
               id="rect178"
               width="38.416569"
               height="25.557037"
               x="215.64091"
               y="40.496765" /><path
               d="m 235.36686,52.541684 2.67961,-3.379803 c 0.4263,-0.524 1.09621,-1.048 2.80141,-1.0742 v -0.524003 c -0.7308,0.0262 -1.6443,0.0524 -2.13151,0.0524 -0.7917,0 -1.73566,0 -2.49691,-0.0524 v 0.524003 c 0.76125,0.0262 1.18756,0.393 1.18756,0.7598 0,0.1834 -0.0305,0.2096 -0.15225,0.393 l -2.22287,2.829603 -2.49691,-3.222603 c -0.0609,-0.0524 -0.15225,-0.1834 -0.15225,-0.262 0,-0.1834 0.4263,-0.4716 1.27891,-0.4978 v -0.524003 c -0.70036,0.0524 -2.10106,0.0524 -2.83187,0.0524 -0.609,0 -1.82701,0 -2.52736,-0.0524 v 0.524003 h 0.3654 c 1.06576,0 1.43116,0.1048 1.79656,0.5764 l 3.56267,4.663603 -3.16682,4.034806 c -0.27405,0.3406 -0.8526,1.1004 -2.83186,1.1004 v 0.524 c 0.70035,-0.0262 1.52251,-0.0524 2.16196,-0.0524 0.7308,0 1.79656,0 2.49691,0.0524 v -0.524 c -0.9135,0 -1.218,-0.4716 -1.218,-0.7598 0,-0.1572 0.0609,-0.2096 0.1827,-0.393 l 2.77096,-3.510803 3.04502,3.982403 c 0.0609,0.0786 0.1218,0.131 0.1218,0.1834 0,0.2096 -0.42631,0.4978 -1.27891,0.4978 v 0.524 c 0.6699,-0.0524 2.10106,-0.0524 2.83187,-0.0524 0.82215,0 1.7052,0.0262 2.52736,0.0524 v -0.524 h -0.3654 c -1.00486,0 -1.43116,-0.0786 -1.82701,-0.6026 z m 0,0"
               id="path179"
               style="display:inline;fill:#c83737;stroke-width:0;stroke-linejoin:miter;stroke-dasharray:none" /><rect
               style="display:inline;opacity:0.859048;fill:#c83737;fill-opacity:0.3;stroke:#020000;stroke-width:0;stroke-linecap:round;stroke-linejoin:round;stroke-dasharray:none;stroke-opacity:1"
               id="rect179"
               width="38.416557"
               height="25.557037"
               x="173.06261"
               y="40.496765" /><path
               d="m 192.78855,52.541684 2.67961,-3.379803 c 0.4263,-0.524 1.09621,-1.048 2.80142,-1.0742 v -0.524003 c -0.73081,0.0262 -1.64431,0.0524 -2.13151,0.0524 -0.79171,0 -1.73566,0 -2.49692,-0.0524 v 0.524003 c 0.76126,0.0262 1.18756,0.393 1.18756,0.7598 0,0.1834 -0.0305,0.2096 -0.15225,0.393 l -2.22286,2.829603 -2.49692,-3.222603 c -0.0609,-0.0524 -0.15225,-0.1834 -0.15225,-0.262 0,-0.1834 0.42631,-0.4716 1.27891,-0.4978 v -0.524003 c -0.70035,0.0524 -2.10106,0.0524 -2.83186,0.0524 -0.60901,0 -1.82701,0 -2.52737,-0.0524 v 0.524003 h 0.3654 c 1.06576,0 1.43116,0.1048 1.79656,0.5764 l 3.56267,4.663603 -3.16681,4.034806 c -0.27406,0.3406 -0.85261,1.1004 -2.83187,1.1004 v 0.524 c 0.70035,-0.0262 1.52251,-0.0524 2.16196,-0.0524 0.73081,0 1.79656,0 2.49691,0.0524 v -0.524 c -0.9135,0 -1.218,-0.4716 -1.218,-0.7598 0,-0.1572 0.0609,-0.2096 0.1827,-0.393 l 2.77096,-3.510803 3.04502,3.982403 c 0.0609,0.0786 0.1218,0.131 0.1218,0.1834 0,0.2096 -0.4263,0.4978 -1.27891,0.4978 v 0.524 c 0.66991,-0.0524 2.10106,-0.0524 2.83187,-0.0524 0.82215,0 1.70521,0.0262 2.52736,0.0524 v -0.524 h -0.3654 c -1.00486,0 -1.43116,-0.0786 -1.82701,-0.6026 z m 0,0"
               id="path180"
               style="display:inline;fill:#c83737;stroke-width:0;stroke-linejoin:miter;stroke-dasharray:none" /></g><g
             id="g134"
             style="display:inline;stroke-width:0.997003;stroke-linejoin:miter;stroke-dasharray:none"
             transform="translate(5.8974582e-6,-0.64416418)"><rect
               style="display:inline;fill:#0098ff;fill-opacity:0.197701;stroke:none;stroke-width:0.08585;stroke-linejoin:miter;stroke-dasharray:none;stroke-dashoffset:0.226772;stroke-opacity:0.196078"
               id="rect190"
               width="15.141455"
               height="4.8105712"
               x="26.044338"
               y="68.008049"
               transform="matrix(5.7987648,0,0,5.2895114,-69.925871,-227.98379)" /><rect
               style="display:inline;opacity:0.859048;fill:#d0ecfc;fill-opacity:1;stroke:#020000;stroke-width:0;stroke-linecap:round;stroke-linejoin:round;stroke-dasharray:none;stroke-opacity:1"
               id="rect186"
               width="79.765953"
               height="25.557037"
               x="-2.60431"
               y="131.74557" /><rect
               style="opacity:0.859048;fill:#c83737;fill-opacity:0.3;stroke:#020000;stroke-width:0;stroke-linecap:round;stroke-linejoin:round;stroke-dasharray:none;stroke-opacity:1"
               id="rect153"
               width="38.416557"
               height="25.557037"
               x="173.06261"
               y="131.74557" /><rect
               style="display:inline;opacity:0.859048;fill:#ffcc00;fill-opacity:0.3;stroke:#020000;stroke-width:0;stroke-linecap:round;stroke-linejoin:round;stroke-dasharray:none;stroke-opacity:1"
               id="rect156"
               width="66.233032"
               height="25.557037"
               x="258.21921"
               y="131.74557" /><rect
               style="opacity:0.859048;fill:#c83737;fill-opacity:0.3;stroke:#020000;stroke-width:0;stroke-linecap:round;stroke-linejoin:round;stroke-dasharray:none;stroke-opacity:1"
               id="rect154"
               width="74.724365"
               height="25.557037"
               x="391.50266"
               y="131.74557" /><rect
               style="opacity:0.859048;fill:#c83737;fill-opacity:0.3;stroke:#020000;stroke-width:0;stroke-linecap:round;stroke-linejoin:round;stroke-dasharray:none;stroke-opacity:1"
               id="rect155"
               width="117.57555"
               height="25.557037"
               x="470.38879"
               y="131.74557" /><rect
               style="display:inline;opacity:0.859048;fill:#338000;fill-opacity:0.301961;stroke:#020000;stroke-width:0;stroke-linecap:round;stroke-linejoin:round;stroke-dasharray:none;stroke-opacity:1"
               id="rect157"
               width="58.72694"
               height="25.557037"
               x="328.61398"
               y="131.74557" /><rect
               style="opacity:0.859048;fill:#c83737;fill-opacity:0.3;stroke:#020000;stroke-width:0;stroke-linecap:round;stroke-linejoin:round;stroke-dasharray:none;stroke-opacity:1"
               id="rect152"
               width="38.416569"
               height="25.557037"
               x="215.64091"
               y="131.74557" /><text
               x="88.618073"
               y="150.71819"
               fill="#000000"
               font-family="Helvetica"
               font-size="12px"
               id="text25-7-9"
               style="font-style:normal;font-variant:normal;font-weight:normal;font-stretch:normal;font-size:10.888px;font-family:'Fira Math';-inkscape-font-specification:'Fira Math, Normal';font-variant-ligatures:normal;font-variant-caps:normal;font-variant-numeric:normal;font-variant-east-asian:normal;display:inline;fill:#000000;stroke-width:0.857869;stroke-linejoin:miter;stroke-dasharray:none"
               transform="scale(1.0215758,0.97887989)"><tspan
                 id="tspan387-5"
                 x="88.618073"
                 y="150.71819"
                 style="stroke-width:0.857869"
                 dx="0 0 0 0 0 0 0 0 0 0">internal (cpp)</tspan></text><text
               xml:space="preserve"
               style="font-style:normal;font-variant:normal;font-weight:normal;font-stretch:normal;font-size:14.4616px;font-family:'Fira Math';-inkscape-font-specification:'Fira Math, Normal';font-variant-ligatures:normal;font-variant-caps:normal;font-variant-numeric:normal;font-variant-east-asian:normal;fill:#000000;fill-opacity:1;stroke:none;stroke-width:0.650771;stroke-linejoin:miter;stroke-dasharray:none;stroke-dashoffset:0.226772;stroke-opacity:1"
               x="18.085798"
               y="160.78839"
               id="text395"
               transform="scale(1.078065,0.92758785)"><tspan
                 id="tspan395"
                 style="stroke-width:0.650771"
                 x="18.085798"
                 y="160.78839">FCPP</tspan></text><path
               d="m 529.69421,143.7905 2.67961,-3.3798 c 0.4263,-0.524 1.09621,-1.048 2.80142,-1.0742 v -0.524 c -0.73081,0.0262 -1.64431,0.0524 -2.13151,0.0524 -0.79171,0 -1.73566,0 -2.49692,-0.0524 v 0.524 c 0.76126,0.0262 1.18756,0.393 1.18756,0.7598 0,0.1834 -0.0304,0.2096 -0.15225,0.393 l -2.22286,2.8296 -2.49692,-3.2226 c -0.0609,-0.0524 -0.15225,-0.1834 -0.15225,-0.262 0,-0.1834 0.42631,-0.4716 1.27891,-0.4978 v -0.524 c -0.70035,0.0524 -2.10106,0.0524 -2.83186,0.0524 -0.60901,0 -1.82701,0 -2.52737,-0.0524 v 0.524 h 0.3654 c 1.06576,0 1.43116,0.1048 1.79656,0.5764 l 3.56267,4.6636 -3.16681,4.0348 c -0.27406,0.3406 -0.85261,1.1004 -2.83187,1.1004 v 0.524 c 0.70035,-0.0262 1.52251,-0.0524 2.16196,-0.0524 0.73081,0 1.79656,0 2.49691,0.0524 v -0.524 c -0.9135,0 -1.218,-0.4716 -1.218,-0.7598 0,-0.1572 0.0609,-0.2096 0.1827,-0.393 l 2.77096,-3.5108 3.04502,3.9824 c 0.0609,0.0786 0.1218,0.131 0.1218,0.1834 0,0.2096 -0.4263,0.4978 -1.27891,0.4978 v 0.524 c 0.66991,-0.0524 2.10106,-0.0524 2.83187,-0.0524 0.82215,0 1.70521,0.0262 2.52736,0.0524 v -0.524 h -0.3654 c -1.00486,0 -1.43116,-0.0786 -1.82701,-0.6026 z m 0,0"
               id="id-7c9f1ff5-0f39-49d7-be7c-0a4f87181846-3"
               style="display:inline;fill:#c83737;stroke-width:0;stroke-linejoin:miter;stroke-dasharray:none" /><path
               d="m 429.3825,143.7905 2.67962,-3.3798 c 0.4263,-0.524 1.0962,-1.048 2.80141,-1.0742 v -0.524 c -0.7308,0.0262 -1.64431,0.0524 -2.13151,0.0524 -0.7917,0 -1.73566,0 -2.49691,-0.0524 v 0.524 c 0.76125,0.0262 1.18755,0.393 1.18755,0.7598 0,0.1834 -0.0305,0.2096 -0.15225,0.393 l -2.22286,2.8296 -2.49691,-3.2226 c -0.0609,-0.0524 -0.15225,-0.1834 -0.15225,-0.262 0,-0.1834 0.4263,-0.4716 1.27891,-0.4978 v -0.524 c -0.70036,0.0524 -2.10107,0.0524 -2.83187,0.0524 -0.609,0 -1.82701,0 -2.52736,-0.0524 v 0.524 h 0.3654 c 1.06576,0 1.43116,0.1048 1.79656,0.5764 l 3.56267,4.6636 -3.16682,4.0348 c -0.27405,0.3406 -0.8526,1.1004 -2.83186,1.1004 v 0.524 c 0.70035,-0.0262 1.5225,-0.0524 2.16196,-0.0524 0.7308,0 1.79656,0 2.49691,0.0524 v -0.524 c -0.9135,0 -1.21801,-0.4716 -1.21801,-0.7598 0,-0.1572 0.0609,-0.2096 0.18271,-0.393 l 2.77096,-3.5108 3.04502,3.9824 c 0.0609,0.0786 0.1218,0.131 0.1218,0.1834 0,0.2096 -0.42631,0.4978 -1.27891,0.4978 v 0.524 c 0.6699,-0.0524 2.10106,-0.0524 2.83186,-0.0524 0.82216,0 1.70521,0.0262 2.52737,0.0524 v -0.524 h -0.36541 c -1.00485,0 -1.43115,-0.0786 -1.827,-0.6026 z m 0,0"
               id="id-7c9f1ff5-0f39-49d7-be7c-0a4f87181846-9"
               style="display:inline;fill:#c83737;stroke-width:0;stroke-linejoin:miter;stroke-dasharray:none" /><path
               d="m 192.78854,143.7905 2.67961,-3.3798 c 0.4263,-0.524 1.09621,-1.048 2.80142,-1.0742 v -0.524 c -0.73081,0.0262 -1.64431,0.0524 -2.13151,0.0524 -0.79171,0 -1.73566,0 -2.49692,-0.0524 v 0.524 c 0.76126,0.0262 1.18756,0.393 1.18756,0.7598 0,0.1834 -0.0305,0.2096 -0.15225,0.393 l -2.22286,2.8296 -2.49692,-3.2226 c -0.0609,-0.0524 -0.15225,-0.1834 -0.15225,-0.262 0,-0.1834 0.42631,-0.4716 1.27891,-0.4978 v -0.524 c -0.70035,0.0524 -2.10106,0.0524 -2.83186,0.0524 -0.60901,0 -1.82701,0 -2.52737,-0.0524 v 0.524 h 0.3654 c 1.06576,0 1.43116,0.1048 1.79656,0.5764 l 3.56267,4.6636 -3.16681,4.0348 c -0.27406,0.3406 -0.85261,1.1004 -2.83187,1.1004 v 0.524 c 0.70035,-0.0262 1.52251,-0.0524 2.16196,-0.0524 0.73081,0 1.79656,0 2.49691,0.0524 v -0.524 c -0.9135,0 -1.218,-0.4716 -1.218,-0.7598 0,-0.1572 0.0609,-0.2096 0.1827,-0.393 l 2.77096,-3.5108 3.04502,3.9824 c 0.0609,0.0786 0.1218,0.131 0.1218,0.1834 0,0.2096 -0.4263,0.4978 -1.27891,0.4978 v 0.524 c 0.66991,-0.0524 2.10106,-0.0524 2.83187,-0.0524 0.82215,0 1.70521,0.0262 2.52736,0.0524 v -0.524 h -0.3654 c -1.00486,0 -1.43116,-0.0786 -1.82701,-0.6026 z m 0,0"
               id="id-7c9f1ff5-0f39-49d7-be7c-0a4f87181846-48"
               style="display:inline;fill:#c83737;stroke-width:0;stroke-linejoin:miter;stroke-dasharray:none" /><path
               d="m 235.36685,143.7905 2.67961,-3.3798 c 0.4263,-0.524 1.09621,-1.048 2.80141,-1.0742 v -0.524 c -0.7308,0.0262 -1.6443,0.0524 -2.13151,0.0524 -0.7917,0 -1.73566,0 -2.49691,-0.0524 v 0.524 c 0.76125,0.0262 1.18756,0.393 1.18756,0.7598 0,0.1834 -0.0305,0.2096 -0.15225,0.393 l -2.22287,2.8296 -2.49691,-3.2226 c -0.0609,-0.0524 -0.15225,-0.1834 -0.15225,-0.262 0,-0.1834 0.4263,-0.4716 1.27891,-0.4978 v -0.524 c -0.70036,0.0524 -2.10106,0.0524 -2.83187,0.0524 -0.609,0 -1.82701,0 -2.52736,-0.0524 v 0.524 h 0.3654 c 1.06576,0 1.43116,0.1048 1.79656,0.5764 l 3.56267,4.6636 -3.16682,4.0348 c -0.27405,0.3406 -0.8526,1.1004 -2.83186,1.1004 v 0.524 c 0.70035,-0.0262 1.52251,-0.0524 2.16196,-0.0524 0.7308,0 1.79656,0 2.49691,0.0524 v -0.524 c -0.9135,0 -1.218,-0.4716 -1.218,-0.7598 0,-0.1572 0.0609,-0.2096 0.1827,-0.393 l 2.77096,-3.5108 3.04502,3.9824 c 0.0609,0.0786 0.1218,0.131 0.1218,0.1834 0,0.2096 -0.42631,0.4978 -1.27891,0.4978 v 0.524 c 0.6699,-0.0524 2.10106,-0.0524 2.83187,-0.0524 0.82215,0 1.7052,0.0262 2.52736,0.0524 v -0.524 h -0.3654 c -1.00486,0 -1.43116,-0.0786 -1.82701,-0.6026 z m 0,0"
               id="id-7c9f1ff5-0f39-49d7-be7c-0a4f87181846-0"
               style="display:inline;fill:#c83737;stroke-width:0;stroke-linejoin:miter;stroke-dasharray:none" /><path
               d="m 353.2729,145.7424 c -0.18271,-0.2358 -0.18271,-0.2358 -0.30451,-0.2358 -0.45675,0 -1.43116,0.524 -1.43116,0.8122 0,0.0262 0,0.0524 0.15225,0.2882 l 2.46647,3.48459 c 0.0914,0.1572 0.27405,0.4192 0.3045,0.4454 0.0305,0.0524 0.12181,0.0524 0.24361,0.0524 0.39585,0 1.30936,-0.4454 1.40071,-0.786 0.63945,-2.51519 1.76611,-4.89939 3.53222,-6.96919 0.97441,-1.17899 2.31422,-2.51519 4.23259,-3.74659 0.33495,-0.2096 0.5481,-0.3668 0.5481,-0.4978 0,-0.131 -0.0913,-0.131 -0.21315,-0.131 -0.91351,0 -3.68448,2.2532 -4.78069,3.3798 -1.97926,1.99119 -3.28862,3.90379 -4.32393,6.47138 z m 0,0"
               id="path156"
               style="display:inline;fill:#338000;stroke-width:1.80228;stroke-linejoin:miter;stroke-dasharray:none" /><path
               d="m 297.82163,143.1224 c 0,-0.3668 -0.1218,-0.5502 -0.27405,-0.5502 -0.0913,0 -0.27405,0.131 -0.27405,0.4454 -0.0913,1.5982 -1.37026,2.5152 -2.74052,2.5152 -1.21801,0 -2.13152,-0.7074 -3.10593,-1.4148 -0.9744,-0.786 -1.97926,-1.5458 -3.31907,-1.5458 -2.10107,0 -3.25818,1.834 -3.25818,3.35359 0,0.5502 0.24361,0.5502 0.27406,0.5502 0.21315,0 0.27405,-0.3406 0.27405,-0.393 0.0913,-1.83399 1.52251,-2.56759 2.71007,-2.56759 1.21801,0 2.16196,0.7074 3.10592,1.4148 1.00486,0.78599 2.00972,1.54579 3.31908,1.54579 2.13151,0 3.28862,-1.83399 3.28862,-3.35359 z m 0,0"
               id="path155"
               style="display:inline;fill:#c39600;fill-opacity:1;stroke-width:1.80228;stroke-linejoin:miter;stroke-dasharray:none" /></g><g
             id="g135"
             transform="translate(0,-1.6790745)"><rect
               style="display:inline;fill:#0098ff;fill-opacity:0.197701;stroke:none;stroke-width:0.475462;stroke-linejoin:miter;stroke-dasharray:none;stroke-dashoffset:0.226772;stroke-opacity:0.196078"
               id="rect191"
               width="87.801735"
               height="25.445572"
               x="81.099121"
               y="103.7552"
               transform="translate(5.8974582e-6,1.0349098)" /><rect
               style="display:inline;opacity:0.859048;fill:#efc8c6;fill-opacity:1;stroke:#020000;stroke-width:0;stroke-linecap:round;stroke-linejoin:round;stroke-dasharray:none;stroke-opacity:1"
               id="rect187"
               width="79.765953"
               height="25.557037"
               x="-2.6043041"
               y="104.06256" /><text
               x="84.600395"
               y="123.12419"
               fill="#000000"
               font-family="Helvetica"
               font-size="12px"
               id="text25-7"
               style="font-style:normal;font-variant:normal;font-weight:normal;font-stretch:normal;font-size:10.888px;font-family:'Fira Math';-inkscape-font-specification:'Fira Math, Normal';font-variant-ligatures:normal;font-variant-caps:normal;font-variant-numeric:normal;font-variant-east-asian:normal;display:inline;fill:#000000;stroke-width:0.857869;stroke-linejoin:miter;stroke-dasharray:none"
               transform="scale(1.0215758,0.97887989)"><tspan
                 id="tspan387"
                 x="84.600395"
                 y="123.12419"
                 style="stroke-width:0.857869">internal (Scala)</tspan></text><text
               xml:space="preserve"
               style="font-style:normal;font-variant:normal;font-weight:normal;font-stretch:normal;font-size:14.4616px;font-family:'Fira Math';-inkscape-font-specification:'Fira Math, Normal';font-variant-ligatures:normal;font-variant-caps:normal;font-variant-numeric:normal;font-variant-east-asian:normal;fill:#000000;fill-opacity:1;stroke:none;stroke-width:0.650771;stroke-linejoin:miter;stroke-dasharray:none;stroke-dashoffset:0.226772;stroke-opacity:1"
               x="18.035168"
               y="131.51553"
               id="text393"
               transform="scale(1.078065,0.92758785)"><tspan
                 id="tspan393"
                 style="font-style:normal;font-variant:normal;font-weight:normal;font-stretch:normal;font-size:14.4616px;font-family:'Fira Math';-inkscape-font-specification:'Fira Math, Normal';font-variant-ligatures:normal;font-variant-caps:normal;font-variant-numeric:normal;font-variant-east-asian:normal;fill:#000000;fill-opacity:1;stroke:none;stroke-width:0.650771"
                 x="18.035168"
                 y="131.51553">ScaFi</tspan></text><rect
               style="display:inline;opacity:0.859048;fill:#c83737;fill-opacity:0.3;stroke:#020000;stroke-width:0;stroke-linecap:round;stroke-linejoin:round;stroke-dasharray:none;stroke-opacity:1"
               id="rect160"
               width="59.729389"
               height="25.557037"
               x="328.58987"
               y="104.06256" /><rect
               style="display:inline;opacity:0.859048;fill:#ffcc00;fill-opacity:0.3;stroke:#020000;stroke-width:0;stroke-linecap:round;stroke-linejoin:round;stroke-dasharray:none;stroke-opacity:1"
               id="rect161"
               width="66.233032"
               height="25.557037"
               x="258.21921"
               y="104.06256" /><rect
               style="display:inline;opacity:0.859048;fill:#338000;fill-opacity:0.301961;stroke:#020000;stroke-width:0;stroke-linecap:round;stroke-linejoin:round;stroke-dasharray:none;stroke-opacity:1"
               id="rect163"
               width="38.416569"
               height="25.557037"
               x="215.64091"
               y="104.06256" /><rect
               style="display:inline;opacity:0.859048;fill:#338000;fill-opacity:0.301961;stroke:#020000;stroke-width:0;stroke-linecap:round;stroke-linejoin:round;stroke-dasharray:none;stroke-opacity:1"
               id="rect164"
               width="38.416557"
               height="25.557037"
               x="173.06261"
               y="104.06256" /><path
               d="m 297.82163,115.43938 c 0,-0.3668 -0.1218,-0.5502 -0.27405,-0.5502 -0.0913,0 -0.27405,0.131 -0.27405,0.4454 -0.0913,1.5982 -1.37026,2.5152 -2.74052,2.5152 -1.21801,0 -2.13152,-0.7074 -3.10593,-1.4148 -0.9744,-0.786 -1.97926,-1.5458 -3.31907,-1.5458 -2.10107,0 -3.25818,1.834 -3.25818,3.35359 0,0.5502 0.24361,0.5502 0.27406,0.5502 0.21315,0 0.27405,-0.3406 0.27405,-0.393 0.0913,-1.83399 1.52251,-2.56759 2.71007,-2.56759 1.21801,0 2.16196,0.7074 3.10592,1.4148 1.00486,0.78599 2.00972,1.54579 3.31908,1.54579 2.13151,0 3.28862,-1.83399 3.28862,-3.35359 z m 0,0"
               id="id-96ed1da9-f448-4d12-bb58-24b5a2dff728-4"
               style="display:inline;fill:#c39600;fill-opacity:1;stroke-width:1.80228;stroke-linejoin:miter;stroke-dasharray:none" /><path
               d="m 358.49511,116.10748 2.67961,-3.3798 c 0.42631,-0.524 1.09621,-1.048 2.80142,-1.0742 v -0.524 c -0.73081,0.0262 -1.64431,0.0524 -2.13151,0.0524 -0.79171,0 -1.73566,0 -2.49692,-0.0524 v 0.524 c 0.76126,0.0262 1.18756,0.393 1.18756,0.7598 0,0.1834 -0.0305,0.2096 -0.15225,0.393 l -2.22286,2.8296 -2.49692,-3.2226 c -0.0609,-0.0524 -0.15225,-0.1834 -0.15225,-0.262 0,-0.1834 0.42631,-0.4716 1.27891,-0.4978 v -0.524 c -0.70035,0.0524 -2.10106,0.0524 -2.83186,0.0524 -0.60901,0 -1.82701,0 -2.52737,-0.0524 v 0.524 h 0.3654 c 1.06576,0 1.43116,0.1048 1.79656,0.5764 l 3.56267,4.6636 -3.16681,4.0348 c -0.27406,0.3406 -0.85261,1.1004 -2.83187,1.1004 v 0.524 c 0.70036,-0.0262 1.52251,-0.0524 2.16196,-0.0524 0.73081,0 1.79656,0 2.49692,0.0524 v -0.524 c -0.91351,0 -1.21801,-0.4716 -1.21801,-0.7598 0,-0.1572 0.0609,-0.2096 0.1827,-0.393 l 2.77096,-3.5108 3.04502,3.9824 c 0.0609,0.0786 0.1218,0.131 0.1218,0.1834 0,0.2096 -0.4263,0.4978 -1.27891,0.4978 v 0.524 c 0.66991,-0.0524 2.10106,-0.0524 2.83187,-0.0524 0.82215,0 1.70521,0.0262 2.52736,0.0524 v -0.524 h -0.3654 c -1.00486,0 -1.43116,-0.0786 -1.82701,-0.6026 z m 0,0"
               id="id-7c9f1ff5-0f39-49d7-be7c-0a4f87181846-06"
               style="display:inline;fill:#c83737;stroke-width:0;stroke-linejoin:miter;stroke-dasharray:none" /><rect
               style="display:inline;opacity:0.859048;fill:#c83737;fill-opacity:0.3;stroke:#020000;stroke-width:0;stroke-linecap:round;stroke-linejoin:round;stroke-dasharray:none;stroke-opacity:1"
               id="rect158"
               width="117.57555"
               height="25.557037"
               x="470.38879"
               y="104.06256" /><path
               d="m 529.69422,116.10748 2.67961,-3.3798 c 0.4263,-0.524 1.09621,-1.048 2.80142,-1.0742 v -0.524 c -0.73081,0.0262 -1.64431,0.0524 -2.13151,0.0524 -0.79171,0 -1.73566,0 -2.49692,-0.0524 v 0.524 c 0.76126,0.0262 1.18756,0.393 1.18756,0.7598 0,0.1834 -0.0304,0.2096 -0.15225,0.393 l -2.22286,2.8296 -2.49692,-3.2226 c -0.0609,-0.0524 -0.15225,-0.1834 -0.15225,-0.262 0,-0.1834 0.42631,-0.4716 1.27891,-0.4978 v -0.524 c -0.70035,0.0524 -2.10106,0.0524 -2.83186,0.0524 -0.60901,0 -1.82701,0 -2.52737,-0.0524 v 0.524 h 0.3654 c 1.06576,0 1.43116,0.1048 1.79656,0.5764 l 3.56267,4.6636 -3.16681,4.0348 c -0.27406,0.3406 -0.85261,1.1004 -2.83187,1.1004 v 0.524 c 0.70035,-0.0262 1.52251,-0.0524 2.16196,-0.0524 0.73081,0 1.79656,0 2.49691,0.0524 v -0.524 c -0.9135,0 -1.218,-0.4716 -1.218,-0.7598 0,-0.1572 0.0609,-0.2096 0.1827,-0.393 l 2.77096,-3.5108 3.04502,3.9824 c 0.0609,0.0786 0.1218,0.131 0.1218,0.1834 0,0.2096 -0.4263,0.4978 -1.27891,0.4978 v 0.524 c 0.66991,-0.0524 2.10106,-0.0524 2.83187,-0.0524 0.82215,0 1.70521,0.0262 2.52736,0.0524 v -0.524 h -0.3654 c -1.00486,0 -1.43116,-0.0786 -1.82701,-0.6026 z m 0,0"
               id="id-7c9f1ff5-0f39-49d7-be7c-0a4f87181846-46"
               style="display:inline;fill:#c83737;stroke-width:0;stroke-linejoin:miter;stroke-dasharray:none" /><rect
               style="display:inline;opacity:0.859048;fill:#ffcc00;fill-opacity:0.3;stroke:#020000;stroke-width:0;stroke-linecap:round;stroke-linejoin:round;stroke-dasharray:none;stroke-opacity:1"
               id="rect159"
               width="74.62738"
               height="25.557037"
               x="391.50266"
               y="104.06256" /><path
               d="m 436.12429,115.43938 c 0,-0.3668 -0.13724,-0.5502 -0.30879,-0.5502 -0.10287,0 -0.30878,0.131 -0.30878,0.4454 -0.10287,1.5982 -1.54392,2.5152 -3.08785,2.5152 -1.37238,0 -2.40167,-0.7074 -3.49958,-1.4148 -1.09789,-0.786 -2.23011,-1.5458 -3.73972,-1.5458 -2.36736,0 -3.67112,1.834 -3.67112,3.35359 0,0.5502 0.27448,0.5502 0.30879,0.5502 0.24017,0 0.30878,-0.3406 0.30878,-0.393 0.10288,-1.83399 1.71548,-2.56759 3.05355,-2.56759 1.37238,0 2.43596,0.7074 3.49956,1.4148 1.13222,0.78599 2.26443,1.54579 3.73974,1.54579 2.40166,0 3.70542,-1.83399 3.70542,-3.35359 z m 0,0"
               id="path159"
               style="display:inline;fill:#c39600;fill-opacity:1;stroke-width:1.91308;stroke-linejoin:miter;stroke-dasharray:none" /><path
               d="m 230.14464,118.05938 c -0.18271,-0.2358 -0.18271,-0.2358 -0.30451,-0.2358 -0.45675,0 -1.43116,0.524 -1.43116,0.8122 0,0.0262 0,0.0524 0.15225,0.2882 l 2.46647,3.48459 c 0.0914,0.1572 0.27405,0.4192 0.3045,0.4454 0.0305,0.0524 0.12181,0.0524 0.24361,0.0524 0.39585,0 1.30936,-0.4454 1.40071,-0.786 0.63945,-2.51519 1.76611,-4.89939 3.53222,-6.96919 0.97441,-1.17899 2.31422,-2.51519 4.23259,-3.74659 0.33495,-0.2096 0.5481,-0.3668 0.5481,-0.4978 0,-0.131 -0.0913,-0.131 -0.21315,-0.131 -0.91351,0 -3.68448,2.2532 -4.78069,3.3798 -1.97926,1.99119 -3.28862,3.90379 -4.32393,6.47138 z m 0,0"
               id="path164"
               style="display:inline;fill:#338000;stroke-width:1.80228;stroke-linejoin:miter;stroke-dasharray:none" /><path
               d="m 187.56633,118.05938 c -0.18271,-0.2358 -0.18271,-0.2358 -0.30451,-0.2358 -0.45675,0 -1.43116,0.524 -1.43116,0.8122 0,0.0262 0,0.0524 0.15225,0.2882 l 2.46647,3.48459 c 0.0914,0.1572 0.27405,0.4192 0.3045,0.4454 0.0305,0.0524 0.12181,0.0524 0.24361,0.0524 0.39585,0 1.30936,-0.4454 1.40071,-0.786 0.63945,-2.51519 1.76611,-4.89939 3.53222,-6.96919 0.97441,-1.17899 2.31422,-2.51519 4.23259,-3.74659 0.33495,-0.2096 0.5481,-0.3668 0.5481,-0.4978 0,-0.131 -0.0913,-0.131 -0.21315,-0.131 -0.91351,0 -3.68448,2.2532 -4.78069,3.3798 -1.97926,1.99119 -3.28862,3.90379 -4.32393,6.47138 z m 0,0"
               id="path165"
               style="display:inline;fill:#338000;stroke-width:1.80228;stroke-linejoin:miter;stroke-dasharray:none" /></g><g
             id="g136"
             style="display:inline;stroke-width:0.997003;stroke-linejoin:miter;stroke-dasharray:none"
             transform="matrix(1,0,0,0.98811686,5.8974579e-6,-1.1989829)"><rect
               style="display:inline;fill:#0098ff;fill-opacity:0.197701;stroke:none;stroke-width:0.478312;stroke-linejoin:miter;stroke-dasharray:none;stroke-dashoffset:0.226772;stroke-opacity:0.196078"
               id="rect192"
               width="87.801735"
               height="25.751581"
               x="81.099121"
               y="75.821274" /><rect
               style="display:inline;opacity:0.859048;fill:#d2ebe6;fill-opacity:1;stroke:#020000;stroke-width:0;stroke-linecap:round;stroke-linejoin:round;stroke-dasharray:none;stroke-opacity:1"
               id="rect188"
               width="79.765953"
               height="25.864386"
               x="-2.6043041"
               y="75.76487" /><rect
               style="display:inline;opacity:0.859048;fill:#338000;fill-opacity:0.301961;stroke:#020000;stroke-width:0;stroke-linecap:round;stroke-linejoin:round;stroke-dasharray:none;stroke-opacity:1"
               id="rect170"
               width="74.448143"
               height="25.557037"
               x="391.68188"
               y="75.918549" /><text
               x="104.48982"
               y="92.69931"
               fill="#000000"
               font-family="Helvetica"
               font-size="12px"
               id="text25-6"
               style="font-style:normal;font-variant:normal;font-weight:normal;font-stretch:normal;font-size:12.6539px;font-family:'Fira Math';-inkscape-font-specification:'Fira Math, Normal';font-variant-ligatures:normal;font-variant-caps:normal;font-variant-numeric:normal;font-variant-east-asian:normal;display:inline;fill:#000000;stroke-width:0.997003;stroke-linejoin:miter;stroke-dasharray:none"><tspan
                 style="font-style:normal;font-variant:normal;font-weight:normal;font-stretch:normal;font-size:10.8462px;font-family:'Fira Math';-inkscape-font-specification:'Fira Math, Normal';font-variant-ligatures:normal;font-variant-caps:normal;font-variant-numeric:normal;font-variant-east-asian:normal"
                 id="tspan388">external</tspan></text><text
               xml:space="preserve"
               style="font-style:normal;font-variant:normal;font-weight:normal;font-stretch:normal;font-size:14.4616px;font-family:'Fira Math';-inkscape-font-specification:'Fira Math, Normal';font-variant-ligatures:normal;font-variant-caps:normal;font-variant-numeric:normal;font-variant-east-asian:normal;fill:#000000;fill-opacity:1;stroke:none;stroke-width:0.650771;stroke-linejoin:miter;stroke-dasharray:none;stroke-dashoffset:0.226772;stroke-opacity:1"
               x="8.8086891"
               y="101.17445"
               id="text392"
               transform="scale(1.078065,0.92758785)"><tspan
                 id="tspan392"
                 style="font-style:normal;font-variant:normal;font-weight:normal;font-stretch:normal;font-size:14.4616px;font-family:'Fira Math';-inkscape-font-specification:'Fira Math, Normal';font-variant-ligatures:normal;font-variant-caps:normal;font-variant-numeric:normal;font-variant-east-asian:normal;fill:#000000;fill-opacity:1;stroke:none;stroke-width:0.650771"
                 x="8.8086891"
                 y="101.17445">Protelis</tspan></text><rect
               style="display:inline;opacity:0.859048;fill:#338000;fill-opacity:0.301961;stroke:#020000;stroke-width:0;stroke-linecap:round;stroke-linejoin:round;stroke-dasharray:none;stroke-opacity:1"
               id="rect165"
               width="38.416557"
               height="25.557037"
               x="173.06261"
               y="75.918549" /><path
               d="m 187.56633,89.915365 c -0.18271,-0.2358 -0.18271,-0.2358 -0.30451,-0.2358 -0.45675,0 -1.43116,0.524 -1.43116,0.8122 0,0.0262 0,0.0524 0.15225,0.2882 l 2.46647,3.484596 c 0.0914,0.1572 0.27405,0.4192 0.3045,0.4454 0.0305,0.0524 0.12181,0.0524 0.24361,0.0524 0.39585,0 1.30936,-0.4454 1.40071,-0.786003 0.63945,-2.51519 1.76611,-4.899393 3.53222,-6.969196 0.97441,-1.178993 2.31422,-2.515193 4.23259,-3.746593 0.33495,-0.209603 0.5481,-0.366803 0.5481,-0.497803 0,-0.131 -0.0913,-0.131 -0.21315,-0.131 -0.91351,0 -3.68448,2.253203 -4.78069,3.379806 -1.97926,1.99119 -3.28862,3.903793 -4.32393,6.471386 z m 0,0"
               id="path166"
               style="display:inline;fill:#338000;stroke-width:1.80228;stroke-linejoin:miter;stroke-dasharray:none" /><rect
               style="display:inline;opacity:0.859048;fill:#c83737;fill-opacity:0.3;stroke:#020000;stroke-width:0;stroke-linecap:round;stroke-linejoin:round;stroke-dasharray:none;stroke-opacity:1"
               id="rect167"
               width="38.416569"
               height="25.557037"
               x="215.64091"
               y="75.918549" /><path
               d="m 235.36685,87.963463 2.67961,-3.379803 c 0.4263,-0.524 1.09621,-1.048 2.80141,-1.0742 v -0.524003 c -0.7308,0.0262 -1.6443,0.0524 -2.13151,0.0524 -0.7917,0 -1.73566,0 -2.49691,-0.0524 v 0.524003 c 0.76125,0.0262 1.18756,0.393 1.18756,0.7598 0,0.1834 -0.0305,0.2096 -0.15225,0.393 l -2.22287,2.829603 -2.49691,-3.222603 c -0.0609,-0.0524 -0.15225,-0.1834 -0.15225,-0.262 0,-0.1834 0.4263,-0.4716 1.27891,-0.4978 v -0.524003 c -0.70036,0.0524 -2.10106,0.0524 -2.83187,0.0524 -0.609,0 -1.82701,0 -2.52736,-0.0524 v 0.524003 h 0.3654 c 1.06576,0 1.43116,0.1048 1.79656,0.5764 l 3.56267,4.663603 -3.16682,4.034806 c -0.27405,0.3406 -0.8526,1.1004 -2.83186,1.1004 v 0.524 c 0.70035,-0.0262 1.52251,-0.0524 2.16196,-0.0524 0.7308,0 1.79656,0 2.49691,0.0524 v -0.524 c -0.9135,0 -1.218,-0.4716 -1.218,-0.7598 0,-0.1572 0.0609,-0.2096 0.1827,-0.393 l 2.77096,-3.510803 3.04502,3.982403 c 0.0609,0.0786 0.1218,0.131 0.1218,0.1834 0,0.2096 -0.42631,0.4978 -1.27891,0.4978 v 0.524 c 0.6699,-0.0524 2.10106,-0.0524 2.83187,-0.0524 0.82215,0 1.7052,0.0262 2.52736,0.0524 v -0.524 h -0.3654 c -1.00486,0 -1.43116,-0.0786 -1.82701,-0.6026 z m 0,0"
               id="path167"
               style="display:inline;fill:#c83737;stroke-width:0;stroke-linejoin:miter;stroke-dasharray:none" /><rect
               style="display:inline;opacity:0.859048;fill:#c83737;fill-opacity:0.3;stroke:#020000;stroke-width:0;stroke-linecap:round;stroke-linejoin:round;stroke-dasharray:none;stroke-opacity:1"
               id="rect168"
               width="65.852135"
               height="25.557037"
               x="258.6001"
               y="75.918549" /><path
               d="m 292.04382,87.963463 2.67961,-3.379803 c 0.4263,-0.524 1.09621,-1.048 2.80141,-1.0742 v -0.524003 c -0.7308,0.0262 -1.6443,0.0524 -2.13151,0.0524 -0.7917,0 -1.73566,0 -2.49691,-0.0524 v 0.524003 c 0.76125,0.0262 1.18756,0.393 1.18756,0.7598 0,0.1834 -0.0305,0.2096 -0.15225,0.393 l -2.22287,2.829603 -2.49691,-3.222603 c -0.0609,-0.0524 -0.15225,-0.1834 -0.15225,-0.262 0,-0.1834 0.4263,-0.4716 1.27891,-0.4978 v -0.524003 c -0.70036,0.0524 -2.10106,0.0524 -2.83187,0.0524 -0.609,0 -1.82701,0 -2.52736,-0.0524 v 0.524003 h 0.3654 c 1.06576,0 1.43116,0.1048 1.79656,0.5764 l 3.56267,4.663603 -3.16682,4.034806 c -0.27405,0.3406 -0.8526,1.1004 -2.83186,1.1004 v 0.524 c 0.70035,-0.0262 1.52251,-0.0524 2.16196,-0.0524 0.7308,0 1.79656,0 2.49691,0.0524 v -0.524 c -0.9135,0 -1.218,-0.4716 -1.218,-0.7598 0,-0.1572 0.0609,-0.2096 0.1827,-0.393 l 2.77096,-3.510803 3.04502,3.982403 c 0.0609,0.0786 0.1218,0.131 0.1218,0.1834 0,0.2096 -0.42631,0.4978 -1.27891,0.4978 v 0.524 c 0.6699,-0.0524 2.10106,-0.0524 2.83187,-0.0524 0.82215,0 1.7052,0.0262 2.52736,0.0524 v -0.524 h -0.3654 c -1.00486,0 -1.43116,-0.0786 -1.82701,-0.6026 z m 0,0"
               id="path168"
               style="display:inline;fill:#c83737;stroke-width:0;stroke-linejoin:miter;stroke-dasharray:none" /><rect
               style="display:inline;opacity:0.859048;fill:#338000;fill-opacity:0.301961;stroke:#020000;stroke-width:0;stroke-linecap:round;stroke-linejoin:round;stroke-dasharray:none;stroke-opacity:1"
               id="rect169"
               width="58.72694"
               height="25.557037"
               x="328.61398"
               y="75.918549" /><path
               d="m 353.2729,89.915365 c -0.18271,-0.2358 -0.18271,-0.2358 -0.30451,-0.2358 -0.45675,0 -1.43116,0.524 -1.43116,0.8122 0,0.0262 0,0.0524 0.15225,0.2882 l 2.46647,3.484593 c 0.0914,0.1572 0.27405,0.419203 0.3045,0.445403 0.0305,0.0524 0.12181,0.0524 0.24361,0.0524 0.39585,0 1.30936,-0.445403 1.40071,-0.786003 0.63945,-2.515193 1.76611,-4.899393 3.53222,-6.969196 0.97441,-1.178993 2.31422,-2.515193 4.23259,-3.746596 0.33495,-0.2096 0.5481,-0.3668 0.5481,-0.4978 0,-0.131 -0.0913,-0.131 -0.21315,-0.131 -0.91351,0 -3.68448,2.253203 -4.78069,3.379803 -1.97926,1.991193 -3.28862,3.903796 -4.32393,6.471389 z m 0,0"
               id="path169"
               style="display:inline;fill:#338000;stroke-width:1.80228;stroke-linejoin:miter;stroke-dasharray:none" /><rect
               style="display:inline;opacity:0.859048;fill:#338000;fill-opacity:0.301961;stroke:#020000;stroke-width:0;stroke-linecap:round;stroke-linejoin:round;stroke-dasharray:none;stroke-opacity:1"
               id="rect171"
               width="117.57554"
               height="25.557037"
               x="470.38879"
               y="75.918549" /><path
               d="m 524.47201,89.915365 c -0.18271,-0.2358 -0.18271,-0.2358 -0.30451,-0.2358 -0.45675,0 -1.43116,0.524 -1.43116,0.8122 0,0.0262 0,0.0524 0.15225,0.2882 l 2.46647,3.484593 c 0.0914,0.1572 0.27405,0.419203 0.3045,0.445403 0.0305,0.0524 0.12181,0.0524 0.24361,0.0524 0.39585,0 1.30936,-0.445403 1.40071,-0.786003 0.63945,-2.515193 1.76611,-4.899393 3.53222,-6.969196 0.97441,-1.178993 2.31422,-2.515193 4.23259,-3.746596 0.33495,-0.2096 0.5481,-0.3668 0.5481,-0.4978 0,-0.131 -0.0913,-0.131 -0.21315,-0.131 -0.91351,0 -3.68448,2.253203 -4.78069,3.379803 -1.97926,1.991193 -3.28862,3.903796 -4.32393,6.471389 z m 0,0"
               id="path171"
               style="display:inline;fill:#338000;stroke-width:1.80228;stroke-linejoin:miter;stroke-dasharray:none" /><path
               d="m 424.2014,89.915369 c -0.18271,-0.2358 -0.18271,-0.2358 -0.30451,-0.2358 -0.45675,0 -1.43116,0.524 -1.43116,0.8122 0,0.0262 0,0.0524 0.15225,0.2882 l 2.46647,3.484593 c 0.0914,0.1572 0.27405,0.419203 0.3045,0.445403 0.0305,0.0524 0.12181,0.0524 0.24361,0.0524 0.39585,0 1.30936,-0.445403 1.40071,-0.786003 0.63945,-2.515193 1.76611,-4.899393 3.53222,-6.969196 0.97441,-1.178993 2.31422,-2.515193 4.23259,-3.746596 0.33495,-0.2096 0.5481,-0.3668 0.5481,-0.4978 0,-0.131 -0.0913,-0.131 -0.21315,-0.131 -0.91351,0 -3.68448,2.253203 -4.78069,3.379803 -1.97926,1.991193 -3.28862,3.903796 -4.32393,6.471389 z m 0,0"
               id="path391"
               style="display:inline;fill:#338000;stroke-width:1.80228;stroke-linejoin:miter;stroke-dasharray:none" /></g><g
             id="g138"
             transform="matrix(5.7987648,0,0,5.1984178,-69.925865,-336.47814)"><rect
               style="display:inline;fill:#82ff30;fill-opacity:0.172414;stroke:none;stroke-width:0.225072;stroke-linejoin:miter;stroke-dasharray:none;stroke-dashoffset:0.226772;stroke-opacity:0.196078"
               id="rect317"
               width="101.83351"
               height="4.9163108"
               x="11.619997"
               y="95.470871" /><text
               x="27.348747"
               y="96.103477"
               fill="#000000"
               font-family="Helvetica"
               font-size="12px"
               id="text25-7-5"
               style="font-style:normal;font-variant:normal;font-weight:normal;font-stretch:normal;font-size:1.96595px;font-family:'Fira Math';-inkscape-font-specification:'Fira Math, Normal';font-variant-ligatures:normal;font-variant-caps:normal;font-variant-numeric:normal;font-variant-east-asian:normal;display:inline;fill:#000000;stroke-width:0.154898;stroke-linejoin:miter;stroke-dasharray:none"
               transform="scale(0.97568724,1.0249186)"><tspan
                 id="tspan387-1"
                 x="27.348747"
                 y="96.103477"
                 style="stroke-width:0.154898">internal (Kotlin)</tspan></text><text
               xml:space="preserve"
               style="font-style:normal;font-variant:normal;font-weight:normal;font-stretch:normal;font-size:2.61121px;font-family:'Fira Math';-inkscape-font-specification:'Fira Math, Normal';font-variant-ligatures:normal;font-variant-caps:normal;font-variant-numeric:normal;font-variant-east-asian:normal;fill:#000000;fill-opacity:1;stroke:none;stroke-width:0.117504;stroke-linejoin:miter;stroke-dasharray:none;stroke-dashoffset:0.226772;stroke-opacity:1"
               x="12.554122"
               y="101.83424"
               id="text396"
               transform="scale(1.029639,0.97121419)"><tspan
                 id="tspan396"
                 style="stroke-width:0.117504"
                 x="12.554122"
                 y="101.83424">Collektive</tspan></text><path
               d="m 44.404664,98.159355 c -0.03151,-0.04458 -0.03151,-0.04458 -0.05251,-0.04458 -0.07877,0 -0.246804,0.09906 -0.246804,0.153549 0,0.005 0,0.0099 0.02626,0.05449 l 0.425344,0.658773 c 0.01576,0.02972 0.04726,0.07925 0.05251,0.0842 0.0053,0.0099 0.02101,0.0099 0.04201,0.0099 0.06826,0 0.2258,-0.0842 0.241554,-0.148596 0.110273,-0.475505 0.304566,-0.926247 0.609133,-1.317549 0.168037,-0.222892 0.399088,-0.475505 0.729912,-0.708305 0.05776,-0.03963 0.09452,-0.06934 0.09452,-0.09411 0,-0.02477 -0.01574,-0.02477 -0.03676,-0.02477 -0.157535,0 -0.63539,0.425974 -0.824432,0.638962 -0.341324,0.376442 -0.567124,0.738025 -0.745664,1.223437 z m 0,0"
               id="path181"
               style="display:inline;fill:#338000;stroke-width:0.325422;stroke-linejoin:miter;stroke-dasharray:none" /><path
               d="m 51.747316,98.159364 c -0.03151,-0.04458 -0.03151,-0.04458 -0.05251,-0.04458 -0.07877,0 -0.246804,0.09906 -0.246804,0.153549 0,0.005 0,0.0099 0.02625,0.05448 l 0.425344,0.658774 c 0.01576,0.02972 0.04726,0.07925 0.05251,0.0842 0.0053,0.0099 0.02101,0.0099 0.04201,0.0099 0.06826,0 0.2258,-0.0842 0.241553,-0.148596 0.110274,-0.475505 0.304567,-0.926247 0.609133,-1.317548 0.168038,-0.222893 0.399089,-0.475506 0.729913,-0.708306 0.05776,-0.03963 0.09452,-0.06934 0.09452,-0.09411 0,-0.02477 -0.01574,-0.02477 -0.03676,-0.02477 -0.157535,0 -0.63539,0.425974 -0.824432,0.638963 -0.341325,0.376441 -0.567125,0.738025 -0.745664,1.223436 z m 0,0"
               id="path182"
               style="display:inline;fill:#338000;stroke-width:0.325422;stroke-linejoin:miter;stroke-dasharray:none" /><path
               d="m 61.488448,98.159364 c -0.03151,-0.04458 -0.03151,-0.04458 -0.05251,-0.04458 -0.07877,0 -0.246804,0.09906 -0.246804,0.153549 0,0.005 0,0.0099 0.02625,0.05448 l 0.425344,0.658774 c 0.01576,0.02972 0.04726,0.07925 0.05251,0.0842 0.0053,0.0099 0.02101,0.0099 0.04201,0.0099 0.06826,0 0.2258,-0.0842 0.241553,-0.148596 0.110274,-0.475505 0.304567,-0.926247 0.609133,-1.317548 0.168038,-0.222893 0.399089,-0.475506 0.729913,-0.708306 0.05776,-0.03963 0.09452,-0.06934 0.09452,-0.09411 0,-0.02477 -0.01574,-0.02477 -0.03676,-0.02477 -0.157535,0 -0.63539,0.425974 -0.824432,0.638963 -0.341325,0.376441 -0.567125,0.738025 -0.745664,1.223436 z m 0,0"
               id="path183"
               style="display:inline;fill:#338000;stroke-width:0.325422;stroke-linejoin:miter;stroke-dasharray:none" /><path
               d="m 72.980848,98.159364 c -0.03151,-0.04458 -0.03151,-0.04458 -0.05251,-0.04458 -0.07877,0 -0.246804,0.09906 -0.246804,0.153549 0,0.005 0,0.0099 0.02625,0.05448 l 0.425344,0.658774 c 0.01576,0.02972 0.04726,0.07925 0.05251,0.0842 0.0053,0.0099 0.02101,0.0099 0.04201,0.0099 0.06826,0 0.2258,-0.0842 0.241553,-0.148596 0.110274,-0.475505 0.304567,-0.926247 0.609133,-1.317548 0.168038,-0.222893 0.399089,-0.475506 0.729913,-0.708306 0.05776,-0.03963 0.09452,-0.06934 0.09452,-0.09411 0,-0.02477 -0.01574,-0.02477 -0.03676,-0.02477 -0.157535,0 -0.63539,0.425974 -0.824432,0.638963 -0.341325,0.376441 -0.567125,0.738025 -0.745664,1.223436 z m 0,0"
               id="path184"
               style="display:inline;fill:#338000;stroke-width:0.325422;stroke-linejoin:miter;stroke-dasharray:none" /><path
               d="m 85.205417,98.159364 c -0.03151,-0.04458 -0.03151,-0.04458 -0.05251,-0.04458 -0.07877,0 -0.246804,0.09906 -0.246804,0.153549 0,0.005 0,0.0099 0.02625,0.05448 l 0.425344,0.658774 c 0.01576,0.02972 0.04726,0.07925 0.05251,0.0842 0.0053,0.0099 0.02101,0.0099 0.04201,0.0099 0.06826,0 0.2258,-0.0842 0.241553,-0.148596 0.110274,-0.475505 0.304567,-0.926247 0.609133,-1.317548 0.168038,-0.222893 0.399089,-0.475506 0.729913,-0.708306 0.05776,-0.03963 0.09452,-0.06934 0.09452,-0.09411 0,-0.02477 -0.01574,-0.02477 -0.03676,-0.02477 -0.157535,0 -0.63539,0.425974 -0.824432,0.638963 -0.341325,0.376441 -0.567125,0.738025 -0.745664,1.223436 z m 0,0"
               id="path185"
               style="display:inline;fill:#338000;stroke-width:0.325422;stroke-linejoin:miter;stroke-dasharray:none" /><path
               d="m 102.50422,98.159364 c -0.0315,-0.04458 -0.0315,-0.04458 -0.0525,-0.04458 -0.0788,0 -0.2468,0.09906 -0.2468,0.153549 0,0.005 0,0.0099 0.0263,0.05448 l 0.42534,0.658774 c 0.0158,0.02972 0.0473,0.07925 0.0525,0.0842 0.005,0.0099 0.021,0.0099 0.042,0.0099 0.0683,0 0.2258,-0.0842 0.24155,-0.148596 0.11028,-0.475505 0.30457,-0.926247 0.60914,-1.317548 0.16804,-0.222893 0.39909,-0.475506 0.72991,-0.708306 0.0578,-0.03963 0.0945,-0.06934 0.0945,-0.09411 0,-0.02477 -0.0157,-0.02477 -0.0368,-0.02477 -0.15753,0 -0.63539,0.425974 -0.82443,0.638963 -0.34133,0.376441 -0.56713,0.738025 -0.74567,1.223436 z m 0,0"
               id="path186"
               style="display:inline;fill:#338000;stroke-width:0.325422;stroke-linejoin:miter;stroke-dasharray:none" /></g></g><g
           id="g166"
           transform="translate(3.7611205e-6,1.2089067)"><rect
             style="display:inline;fill:#01497c;fill-opacity:0.396078;stroke:none;stroke-width:0.101549;stroke-linejoin:miter;stroke-dasharray:none;stroke-dashoffset:0.226772;stroke-opacity:0.196078"
             id="rect194"
             width="13.701166"
             height="7.4383507"
             x="27.484627"
             y="65.380272"
             transform="matrix(5.7987648,0,0,5.2895114,-161.98119,-344.59708)" /><text
             x="36.745491"
             y="24.625235"
             fill="#000000"
             font-family="Helvetica"
             font-size="12px"
             text-anchor="middle"
             id="text3"
             style="font-style:normal;font-variant:normal;font-weight:normal;font-stretch:normal;font-size:12px;font-family:'Fira Math';-inkscape-font-specification:'Fira Math, Normal';font-variant-ligatures:normal;font-variant-caps:normal;font-variant-numeric:normal;font-variant-east-asian:normal;text-anchor:middle;display:inline;fill:#000000;stroke-width:0.997003;stroke-linejoin:miter;stroke-dasharray:none"><tspan
               style="font-style:normal;font-variant:normal;font-weight:normal;font-stretch:normal;font-size:15.6303px;font-family:'Fira Math';-inkscape-font-specification:'Fira Math, Normal';font-variant-ligatures:normal;font-variant-caps:normal;font-variant-numeric:normal;font-variant-east-asian:normal"
               id="tspan125">Language</tspan></text><g
             id="g145"
             transform="matrix(5.7987648,0,0,5.2895114,-72.65497,-344.59709)"><rect
               style="fill:#01497c;fill-opacity:0.396078;stroke:none;stroke-width:0.0706136;stroke-linejoin:miter;stroke-dasharray:none;stroke-dashoffset:0.226772;stroke-opacity:0.196078"
               id="rect126"
               width="6.6249561"
               height="7.4383507"
               x="42.374123"
               y="65.380272" /><text
               x="47.897083"
               y="66.593559"
               fill="#000000"
               font-family="Helvetica"
               font-size="12px"
               text-anchor="middle"
               id="text138"
               style="font-style:normal;font-variant:normal;font-weight:normal;font-stretch:normal;font-size:2.16673px;font-family:'Fira Math';-inkscape-font-specification:'Fira Math, Normal';font-variant-ligatures:normal;font-variant-caps:normal;font-variant-numeric:normal;font-variant-east-asian:normal;text-anchor:middle;display:inline;fill:#000000;stroke-width:0.18002;stroke-linejoin:miter;stroke-dasharray:none"
               transform="scale(0.95508064,1.047032)"><tspan
                 style="font-style:normal;font-variant:normal;font-weight:normal;font-stretch:normal;font-size:2.16673px;font-family:'Fira Math';-inkscape-font-specification:'Fira Math, Normal';font-variant-ligatures:normal;font-variant-caps:normal;font-variant-numeric:normal;font-variant-east-asian:normal;stroke-width:0.18002"
                 id="tspan138">JVM</tspan></text></g><g
             id="g146"
             transform="matrix(5.7987648,0,0,5.2895114,-73.03588,-344.59709)"><rect
               style="fill:#01497c;fill-opacity:0.396078;stroke:none;stroke-width:0.0706136;stroke-linejoin:miter;stroke-dasharray:none;stroke-dashoffset:0.226772;stroke-opacity:0.196078"
               id="rect138"
               width="6.6249561"
               height="7.4383507"
               x="49.782463"
               y="65.380272" /><text
               x="55.63002"
               y="66.60656"
               fill="#000000"
               font-family="Helvetica"
               font-size="12px"
               text-anchor="middle"
               id="text139"
               style="font-style:normal;font-variant:normal;font-weight:normal;font-stretch:normal;font-size:2.16673px;font-family:'Fira Math';-inkscape-font-specification:'Fira Math, Normal';font-variant-ligatures:normal;font-variant-caps:normal;font-variant-numeric:normal;font-variant-east-asian:normal;text-anchor:middle;display:inline;fill:#000000;stroke-width:0.18002;stroke-linejoin:miter;stroke-dasharray:none"
               transform="scale(0.95508064,1.047032)"><tspan
                 style="font-style:normal;font-variant:normal;font-weight:normal;font-stretch:normal;font-size:2.16673px;font-family:'Fira Math';-inkscape-font-specification:'Fira Math, Normal';font-variant-ligatures:normal;font-variant-caps:normal;font-variant-numeric:normal;font-variant-east-asian:normal;stroke-width:0.18002"
                 id="tspan139">JS</tspan></text></g><g
             id="g144"
             transform="matrix(5.7987648,0,0,5.2895114,-69.925865,-344.59709)"><rect
               style="fill:#01497c;fill-opacity:0.396078;stroke:none;stroke-width:0.106753;stroke-linejoin:miter;stroke-dasharray:none;stroke-dashoffset:0.226772;stroke-opacity:0.196078"
               id="rect162"
               width="15.141455"
               height="7.4383507"
               x="26.044338"
               y="65.380272" /><text
               x="35.144051"
               y="66.524223"
               fill="#000000"
               font-family="Helvetica"
               font-size="12px"
               text-anchor="middle"
               id="text22"
               style="font-style:normal;font-variant:normal;font-weight:normal;font-stretch:normal;font-size:2.16673px;font-family:'Fira Math';-inkscape-font-specification:'Fira Math, Normal';font-variant-ligatures:normal;font-variant-caps:normal;font-variant-numeric:normal;font-variant-east-asian:normal;text-anchor:middle;display:inline;fill:#000000;stroke-width:0.18002;stroke-linejoin:miter;stroke-dasharray:none"
               transform="scale(0.95508063,1.047032)"><tspan
                 style="font-style:normal;font-variant:normal;font-weight:normal;font-stretch:normal;font-size:2.16673px;font-family:'Fira Math';-inkscape-font-specification:'Fira Math, Normal';font-variant-ligatures:normal;font-variant-caps:normal;font-variant-numeric:normal;font-variant-east-asian:normal;stroke-width:0.18002"
                 id="tspan124">DSL type</tspan></text></g><g
             id="g147"
             transform="matrix(5.7987648,0,0,5.2895114,-73.416805,-344.59709)"><rect
               style="fill:#01497c;fill-opacity:0.396078;stroke:none;stroke-width:0.0927185;stroke-linejoin:miter;stroke-dasharray:none;stroke-dashoffset:0.226772;stroke-opacity:0.196078"
               id="rect139"
               width="11.42192"
               height="7.4383507"
               x="57.190804"
               y="65.380272" /><text
               x="65.870995"
               y="66.795067"
               fill="#000000"
               font-family="Helvetica"
               font-size="12px"
               text-anchor="middle"
               id="text140"
               style="font-style:normal;font-variant:normal;font-weight:normal;font-stretch:normal;font-size:2.16673px;font-family:'Fira Math';-inkscape-font-specification:'Fira Math, Normal';font-variant-ligatures:normal;font-variant-caps:normal;font-variant-numeric:normal;font-variant-east-asian:normal;text-anchor:middle;display:inline;fill:#000000;stroke-width:0.18002;stroke-linejoin:miter;stroke-dasharray:none"
               transform="scale(0.95508064,1.047032)"><tspan
                 style="font-style:normal;font-variant:normal;font-weight:normal;font-stretch:normal;font-size:2.16673px;font-family:'Fira Math';-inkscape-font-specification:'Fira Math, Normal';font-variant-ligatures:normal;font-variant-caps:normal;font-variant-numeric:normal;font-variant-east-asian:normal;stroke-width:0.18002"
                 id="tspan140">Wearables</tspan></text></g><g
             id="g148"
             transform="matrix(5.7987648,0,0,5.2895114,-73.597893,-344.59709)"><rect
               style="fill:#01497c;fill-opacity:0.396078;stroke:none;stroke-width:0.0873067;stroke-linejoin:miter;stroke-dasharray:none;stroke-dashoffset:0.226772;stroke-opacity:0.196078"
               id="rect140"
               width="10.12749"
               height="7.4383507"
               x="69.361649"
               y="65.380272" /><text
               x="78.322006"
               y="66.56839"
               fill="#000000"
               font-family="Helvetica"
               font-size="12px"
               text-anchor="middle"
               id="text141"
               style="font-style:normal;font-variant:normal;font-weight:normal;font-stretch:normal;font-size:2.16673px;font-family:'Fira Math';-inkscape-font-specification:'Fira Math, Normal';font-variant-ligatures:normal;font-variant-caps:normal;font-variant-numeric:normal;font-variant-east-asian:normal;text-anchor:middle;white-space:pre;inline-size:9.73288;display:inline;fill:#000000;stroke-width:0.18002;stroke-linejoin:miter;stroke-dasharray:none"
               transform="matrix(0.95508064,0,0,1.047032,-0.48122349,-1.1465274)"
               xml:space="preserve"><tspan
                 x="78.322006"
                 y="66.56839"
                 id="tspan10">Reified<tspan
   y="66.56839"
   id="tspan11"> </tspan></tspan><tspan
                 x="78.322006"
                 y="69.276801"
                 id="tspan12">Fields</tspan></text></g><g
             id="g149"
             transform="matrix(5.7987648,0,0,5.2895114,-72.099139,-345.75276)"><rect
               style="fill:#01497c;fill-opacity:0.396078;stroke:none;stroke-width:0.0984828;stroke-linejoin:miter;stroke-dasharray:none;stroke-dashoffset:0.226772;stroke-opacity:0.196078"
               id="rect144"
               width="12.886256"
               height="7.4383507"
               x="79.948372"
               y="65.598755" /><text
               x="89.695328"
               y="66.795067"
               fill="#000000"
               font-family="Helvetica"
               font-size="12px"
               text-anchor="middle"
               id="text144"
               style="font-style:normal;font-variant:normal;font-weight:normal;font-stretch:normal;font-size:2.16673px;font-family:'Fira Math';-inkscape-font-specification:'Fira Math, Normal';font-variant-ligatures:normal;font-variant-caps:normal;font-variant-numeric:normal;font-variant-east-asian:normal;text-anchor:middle;white-space:pre;inline-size:17.0742;display:inline;fill:#000000;stroke-width:0.18002;stroke-linejoin:miter;stroke-dasharray:none"
               transform="matrix(0.95508064,0,0,1.047032,0.70972305,-1.4966032)"
               xml:space="preserve"><tspan
                 x="89.695328"
                 y="66.795067"
                 id="tspan13">Transparent<tspan
   y="66.795067"
   id="tspan14"> </tspan></tspan><tspan
                 x="89.695328"
                 y="69.503478"
                 id="tspan15">Alignment</tspan></text></g><g
             id="g150"
             transform="matrix(5.7987648,0,0,5.2895114,6.7869735,-345.75276)"><rect
               style="fill:#01497c;fill-opacity:0.394928;stroke:none;stroke-width:0.123534;stroke-linejoin:miter;stroke-dasharray:none;stroke-dashoffset:0.226772;stroke-opacity:0.196078"
               id="rect149"
               width="20.275965"
               height="7.4383507"
               x="79.948372"
               y="65.598755" /><text
               x="89.695328"
               y="66.795067"
               fill="#000000"
               font-family="Helvetica"
               font-size="12px"
               text-anchor="middle"
               id="text149"
               style="font-style:normal;font-variant:normal;font-weight:normal;font-stretch:normal;font-size:2.16673px;font-family:'Fira Math';-inkscape-font-specification:'Fira Math, Normal';font-variant-ligatures:normal;font-variant-caps:normal;font-variant-numeric:normal;font-variant-east-asian:normal;text-anchor:middle;white-space:pre;inline-size:23.3128;display:inline;fill:#000000;stroke-width:0.18002;stroke-linejoin:miter;stroke-dasharray:none"
               transform="matrix(0.95508064,0,0,1.047032,4.4138897,-1.3933803)"
               xml:space="preserve"><tspan
                 x="89.695328"
                 y="66.795067"
                 id="tspan16">Automatic Complete<tspan
   y="66.795067"
   id="tspan17"> </tspan></tspan><tspan
                 x="89.695328"
                 y="69.503478"
                 id="tspan18">Alignment</tspan></text></g></g><rect
           style="display:inline;opacity:0.859048;fill:#c83737;fill-opacity:0.3;stroke:#020000;stroke-width:0;stroke-linecap:round;stroke-linejoin:round;stroke-dasharray:none;stroke-opacity:1"
           id="rect160-4"
           width="22.422005"
           height="16.793941"
           x="600.91425"
           y="90.795647" /><path
           d="m 612.10912,98.736835 1.7556,-2.21434 c 0.2793,-0.34331 0.7182,-0.68662 1.83541,-0.70378 v -0.34331 c -0.47881,0.0172 -1.07731,0.0343 -1.39651,0.0343 -0.5187,0 -1.13715,0 -1.6359,-0.0343 v 0.34331 c 0.49875,0.0172 0.77805,0.25748 0.77805,0.49779 0,0.12016 -0.02,0.13733 -0.0997,0.25749 l -1.45635,1.85387 -1.63591,-2.11136 c -0.0399,-0.0343 -0.0997,-0.12015 -0.0997,-0.17165 0,-0.12016 0.27931,-0.30898 0.83791,-0.32614 v -0.34331 c -0.45885,0.0343 -1.37655,0.0343 -1.85535,0.0343 -0.39901,0 -1.19701,0 -1.65586,-0.0343 v 0.34331 h 0.2394 c 0.69825,0 0.93765,0.0687 1.17705,0.37764 l 2.33416,3.05545 -2.0748,2.643475 c -0.17956,0.22315 -0.55861,0.72095 -1.85536,0.72095 v 0.34331 c 0.45886,-0.0172 0.9975,-0.0343 1.41645,-0.0343 0.47881,0 1.17705,0 1.63591,0.0343 v -0.34331 c -0.59851,0 -0.798,-0.30898 -0.798,-0.4978 0,-0.10299 0.0399,-0.13733 0.11969,-0.25748 l 1.81545,-2.300165 1.99501,2.609135 c 0.0399,0.0515 0.0798,0.0858 0.0798,0.12016 0,0.13733 -0.2793,0.32615 -0.8379,0.32615 v 0.34331 c 0.4389,-0.0343 1.37655,-0.0343 1.85535,-0.0343 0.53865,0 1.11721,0.0172 1.65585,0.0343 v -0.34331 h -0.2394 c -0.65835,0 -0.93765,-0.0515 -1.197,-0.39481 z m 0,0"
           id="id-7c9f1ff5-0f39-49d7-be7c-0a4f87181846-06-0"
           style="display:inline;fill:#c83737;stroke-width:0;stroke-linejoin:miter;stroke-dasharray:none" /><rect
           style="display:inline;opacity:0.859048;fill:#ffcc00;fill-opacity:0.3;stroke:#020000;stroke-width:0;stroke-linecap:round;stroke-linejoin:round;stroke-dasharray:none;stroke-opacity:1"
           id="rect358"
           width="22.422005"
           height="16.679434"
           x="600.91425"
           y="109.72527" /><path
           d="m 616.01933,117.11425 c 0,-0.24032 -0.0798,-0.36048 -0.17955,-0.36048 -0.0598,0 -0.17955,0.0858 -0.17955,0.29182 -0.0598,1.04709 -0.89775,1.64788 -1.7955,1.64788 -0.79801,0 -1.39651,-0.46347 -2.03492,-0.92694 -0.63839,-0.51496 -1.29675,-1.01276 -2.17455,-1.01276 -1.37656,0 -2.13466,1.20158 -2.13466,2.19717 0,0.36048 0.1596,0.36048 0.17955,0.36048 0.13965,0 0.17955,-0.22315 0.17955,-0.25748 0.0598,-1.20158 0.9975,-1.68221 1.77556,-1.68221 0.798,0 1.41645,0.46347 2.0349,0.92693 0.65836,0.51496 1.31671,1.01276 2.17457,1.01276 1.3965,0 2.1546,-1.20158 2.1546,-2.19717 z m 0,0"
           id="path358"
           style="display:inline;fill:#c39600;fill-opacity:1;stroke-width:1.1808;stroke-linejoin:miter;stroke-dasharray:none" /><rect
           style="display:inline;opacity:0.859048;fill:#338000;fill-opacity:0.301961;stroke:#020000;stroke-width:0;stroke-linecap:round;stroke-linejoin:round;stroke-dasharray:none;stroke-opacity:1"
           id="rect170-9"
           width="22.422005"
           height="16.642254"
           x="600.62427"
           y="72.129723" /><path
           d="m 608.68768,81.191055 c -0.1197,-0.15266 -0.1197,-0.15266 -0.1995,-0.15266 -0.29925,0 -0.93766,0.33923 -0.93766,0.52581 0,0.017 0,0.0339 0.0997,0.18658 l 1.61596,2.25587 c 0.0599,0.10177 0.17955,0.27138 0.1995,0.28835 0.02,0.0339 0.0798,0.0339 0.15961,0.0339 0.25935,0 0.85785,-0.28835 0.9177,-0.50885 0.41895,-1.62829 1.1571,-3.17179 2.3142,-4.51175 0.63841,-0.76326 1.51621,-1.62829 2.77307,-2.42548 0.21945,-0.1357 0.3591,-0.23747 0.3591,-0.32227 0,-0.0848 -0.0598,-0.0848 -0.13965,-0.0848 -0.5985,0 -2.41396,1.45869 -3.13216,2.18803 -1.29676,1.28907 -2.15461,2.52726 -2.83291,4.18948 z m 0,0"
           id="path170"
           style="display:inline;fill:#338000;stroke-width:1.17376;stroke-linejoin:miter;stroke-dasharray:none" /><text
           xml:space="preserve"
           style="font-style:normal;font-variant:normal;font-weight:normal;font-stretch:normal;font-size:6.77856px;line-height:1.1;font-family:'Fira Math';-inkscape-font-specification:'Fira Math, Normal';font-variant-ligatures:normal;font-variant-caps:normal;font-variant-numeric:normal;font-variant-east-asian:normal;text-align:center;letter-spacing:-0.149527px;word-spacing:0.0628013px;text-anchor:middle;opacity:1;fill:#338000;fill-opacity:1;stroke:none;stroke-width:0.735672;stroke-linecap:round;stroke-linejoin:round;stroke-dasharray:none;stroke-dashoffset:0;stroke-opacity:1"
           x="614.03992"
           y="86.027374"
           id="text358"
           transform="scale(1.0466927,0.95539024)"><tspan
             id="tspan358"
             style="font-size:6.77856px;fill:#338000;fill-opacity:1;stroke-width:0.735672"
             x="613.96515"
             y="86.027374">Supported</tspan></text><text
           xml:space="preserve"
           style="font-style:normal;font-variant:normal;font-weight:normal;font-stretch:normal;font-size:6.77856px;line-height:1.1;font-family:'Fira Math';-inkscape-font-specification:'Fira Math, Normal';font-variant-ligatures:normal;font-variant-caps:normal;font-variant-numeric:normal;font-variant-east-asian:normal;text-align:center;letter-spacing:-0.149527px;word-spacing:0.0628013px;text-anchor:middle;opacity:1;fill:#c83737;fill-opacity:1;stroke:none;stroke-width:0.735672;stroke-linecap:round;stroke-linejoin:round;stroke-dasharray:none;stroke-dashoffset:0;stroke-opacity:1"
           x="619.41547"
           y="105.64424"
           id="text359"
           transform="scale(1.0466927,0.95539024)"><tspan
             id="tspan359"
             style="font-size:6.77856px;fill:#c83737;fill-opacity:1;stroke-width:0.735672"
             x="619.3407"
             y="105.64424">Not supported</tspan></text><text
           xml:space="preserve"
           style="font-style:normal;font-variant:normal;font-weight:normal;font-stretch:normal;font-size:6.77856px;line-height:1.1;font-family:'Fira Math';-inkscape-font-specification:'Fira Math, Normal';font-variant-ligatures:normal;font-variant-caps:normal;font-variant-numeric:normal;font-variant-east-asian:normal;text-align:center;letter-spacing:-0.149527px;word-spacing:0.0628013px;text-anchor:middle;opacity:1;fill:#c39600;fill-opacity:1;stroke:none;stroke-width:0.735672;stroke-linecap:round;stroke-linejoin:round;stroke-dasharray:none;stroke-dashoffset:0;stroke-opacity:1"
           x="626.24701"
           y="125.49949"
           id="text360"
           transform="scale(1.0466927,0.95539024)"><tspan
             id="tspan360"
             style="font-size:6.77856px;fill:#c39600;fill-opacity:1;stroke-width:0.735672"
             x="626.17224"
             y="125.49949">Partially supported</tspan></text></g></g></g><radialGradient
     id="a"
     cx="22.431999"
     cy="3.493"
     r="21.679001"
     gradientTransform="matrix(1.0856,0,0,1.0856,-4.4842,-2.9511)"
     gradientUnits="userSpaceOnUse"><stop
       stop-color="#e44857"
       offset=".003"
       id="stop1-7" /><stop
       stop-color="#c711e1"
       offset=".469"
       id="stop2-7" /><stop
       stop-color="#7f52ff"
       offset="1"
       id="stop3-5" /></radialGradient></svg>
